<?xml version="1.0" encoding="UTF-8"?>
<svg xmlns="http://www.w3.org/2000/svg" xmlns:xlink="http://www.w3.org/1999/xlink" width="0" height="0">
<symbol id="arrow-left" width="24" height="24" viewBox="0 0 24 24" fill="none"><path d="M4 12L20 12M4 12L10 6M4 12L10 18" stroke-width="1.5" stroke-linecap="round" stroke-linejoin="round"/></symbol><symbol id="camera" width="24" height="24" viewBox="0 0 24 24" fill="none"><path d="M12 16C13.6569 16 15 14.6569 15 13C15 11.3431 13.6569 10 12 10C10.3431 10 9 11.3431 9 13C9 14.6569 10.3431 16 12 16Z" stroke-width="1.5" stroke-linejoin="round"/><path d="M3 9C3 7.89543 3.89543 7 5 7H7.5C8.05228 7 8.5 6.55228 8.5 6C8.5 5.44772 8.94772 5 9.5 5H14.5C15.0523 5 15.5 5.44772 15.5 6C15.5 6.55228 15.9477 7 16.5 7H19C20.1046 7 21 7.89543 21 9V17C21 18.1046 20.1046 19 19 19H5C3.89543 19 3 18.1046 3 17V9Z" stroke-width="1.5" stroke-linejoin="round"/></symbol><symbol id="check" width="24" height="24" viewBox="0 0 24 24" fill="none"><path d="M20.0001 7L9.0001 18L4 13" stroke-width="1.5" stroke-linecap="round" stroke-linejoin="round"/></symbol><symbol id="check-round" width="24" height="24" viewBox="0 0 24 24" fill="none"><path d="M17 9L9.99998 16L6.99994 13M8 20H16C18.2091 20 20 18.2091 20 16V8C20 5.79086 18.2091 4 16 4H8C5.79086 4 4 5.79086 4 8V16C4 18.2091 5.79086 20 8 20Z" stroke-width="1.5" stroke-linecap="round" stroke-linejoin="round"/></symbol><symbol id="chevron-down" width="24" height="24" viewBox="0 0 24 24" fill="none"><path d="M4 9L12 17L20 9" stroke-width="1.5" stroke-linecap="round" stroke-linejoin="round"/></symbol><symbol id="chevron-up" width="24" height="24" viewBox="0 0 24 24" fill="none"><path d="M20 15L12 7L4 15" stroke-width="1.5" stroke-linecap="round" stroke-linejoin="round"/></symbol><symbol id="clock" width="25" height="24" viewBox="0 0 25 24" fill="none"><path d="M12.7578 7V12L15.7578 15M21.7578 12C21.7578 16.9706 17.7284 21 12.7578 21C7.78725 21 3.75781 16.9706 3.75781 12C3.75781 7.02944 7.78725 3 12.7578 3C17.7284 3 21.7578 7.02944 21.7578 12Z" stroke-width="1.5" stroke-linecap="round" stroke-linejoin="round"/></symbol><symbol id="cross-small" width="24" height="24" viewBox="0 0 24 24" fill="none"><path d="M19 5L5 19M5.00004 5L19 19" stroke-width="1.5" stroke-linecap="round" stroke-linejoin="round"/></symbol><symbol id="cross-small-1" width="24" height="24" viewBox="0 0 24 24" fill="none"><path d="M16 8L8 16M8.00003 8L16 16" stroke-width="1.5" stroke-linecap="round" stroke-linejoin="round"/></symbol><symbol id="edit-2" width="24" height="24" fill="none"><path d="m5 15.706-.53-.53a.75.75 0 0 0-.22.53H5ZM15.706 5l.53-.53a.75.75 0 0 0-1.06 0l.53.53ZM19 8.294l.53.53a.75.75 0 0 0 0-1.06l-.53.53ZM8.294 19v.75a.75.75 0 0 0 .53-.22l-.53-.53ZM5 19h-.75c0 .414.336.75.75.75V19Zm6.588-.75a.75.75 0 0 0 0 1.5v-1.5Zm7 1.5a.75.75 0 0 0 0-1.5v1.5ZM5.53 16.236 16.236 5.53l-1.06-1.06L4.47 15.176l1.06 1.06ZM15.176 5.53l3.294 3.294 1.06-1.06-3.294-3.294-1.06 1.06Zm3.294 2.234L7.764 18.47l1.06 1.06L19.53 8.824l-1.06-1.06ZM8.294 18.25H5v1.5h3.294v-1.5ZM5.75 19v-3.294h-1.5V19h1.5Zm6.955-11 3.294 3.295 1.06-1.06-3.293-3.295L12.705 8Zm-1.117 11.75h7v-1.5h-7v1.5Z"/></symbol><symbol id="female" width="25" height="24" viewBox="0 0 25 24" fill="none"><path d="M12.7578 13C15.5192 13 17.7578 10.7614 17.7578 8C17.7578 5.23858 15.5192 3 12.7578 3C9.99639 3 7.75781 5.23858 7.75781 8C7.75781 10.7614 9.99639 13 12.7578 13ZM12.7578 13L12.7578 21M9.75781 18L15.7578 18" stroke-width="1.5" stroke-linecap="round" stroke-linejoin="round"/></symbol><symbol id="filters-2" width="24" height="24" viewBox="0 0 24 24" fill="none"><path d="M14 5C14 3.89543 13.1046 3 12 3C10.8954 3 10 3.89543 10 5M14 5C14 6.10457 13.1046 7 12 7C10.8954 7 10 6.10457 10 5M14 5H20M10 5L4 5M16 12C16 13.1046 16.8954 14 18 14C19.1046 14 20 13.1046 20 12C20 10.8954 19.1046 10 18 10C16.8954 10 16 10.8954 16 12ZM16 12H4M8 19C8 17.8954 7.10457 17 6 17C4.89543 17 4 17.8954 4 19C4 20.1046 4.89543 21 6 21C7.10457 21 8 20.1046 8 19ZM8 19H20" stroke-width="1.5" stroke-linecap="round"/></symbol><symbol id="filters-3" width="25" height="24" viewBox="0 0 25 24" fill="none"><path d="M4.75781 4L9.75781 12V18L15.7578 21V12L20.7578 4H4.75781Z" stroke-width="1.5" stroke-linecap="round" stroke-linejoin="round"/></symbol><symbol id="heart" width="24" height="24" viewBox="0 0 24 24" fill="none"><path d="M4.3314 12.0474L12 20L19.6686 12.0474C20.5211 11.1633 21 9.96429 21 8.71405C21 6.11055 18.9648 4 16.4543 4C15.2487 4 14.0925 4.49666 13.24 5.38071L12 6.66667L10.76 5.38071C9.90749 4.49666 8.75128 4 7.54569 4C5.03517 4 3 6.11055 3 8.71405C3 9.96429 3.47892 11.1633 4.3314 12.0474Z" stroke-width="1.5" stroke-linecap="round" stroke-linejoin="round"/></symbol><symbol id="location-1" width="25" height="24" viewBox="0 0 25 24" fill="none"><path d="M20.7578 11C20.7578 15.4183 17.1761 19 12.7578 21C8.33953 19 4.75781 15.4183 4.75781 11C4.75781 6.58172 8.33953 3 12.7578 3C17.1761 3 20.7578 6.58172 20.7578 11Z" stroke-width="1.5" stroke-linecap="round" stroke-linejoin="round"/><path d="M15.7578 11C15.7578 12.6569 14.4147 14 12.7578 14C11.101 14 9.75781 12.6569 9.75781 11C9.75781 9.34315 11.101 8 12.7578 8C14.4147 8 15.7578 9.34315 15.7578 11Z" stroke-width="1.5" stroke-linecap="round" stroke-linejoin="round"/></symbol><symbol id="logout" width="24" height="24" viewBox="0 0 24 24" fill="none"><path d="M14 4L18 4C19.1046 4 20 4.89543 20 6V18C20 19.1046 19.1046 20 18 20H14M3 12L15 12M3 12L7 8M3 12L7 16" stroke-width="1.5" stroke-linecap="round" stroke-linejoin="round"/></symbol><symbol id="male" width="25" height="24" viewBox="0 0 25 24" fill="none"><path d="M12.7578 11C9.99639 11 7.75781 13.2386 7.75781 16C7.75781 18.7614 9.99639 21 12.7578 21C15.5192 21 17.7578 18.7614 17.7578 16C17.7578 13.2386 15.5192 11 12.7578 11ZM12.7578 11V3M12.7578 3L16.7578 7M12.7578 3L8.75781 7" stroke-width="1.5" stroke-linecap="round" stroke-linejoin="round"/></symbol><symbol id="menu-hamburger" width="24" height="24" viewBox="0 0 24 24" fill="none"><path d="M4 7H20M4 12H20M4 17H20" stroke-width="1.5" stroke-linecap="round" stroke-linejoin="round"/></symbol><symbol id="pawprint 1" width="24" height="24" fill="none"><g clip-path="url(#a)"><path d="M15.361 14.362a5.82 5.82 0 0 0-3.322-4.518 5.82 5.82 0 0 0-5.596.36l-4.074 2.579a3.675 3.675 0 0 0-1.473 1.795 3.674 3.674 0 0 0-.113 2.32 3.675 3.675 0 0 0 1.294 1.93c.631.491 1.388.76 2.189.778l.052.001a7.271 7.271 0 0 1 5.24 2.467 3.68 3.68 0 0 0 2.002 1.177 3.675 3.675 0 0 0 2.31-.25 3.675 3.675 0 0 0 1.705-1.577c.388-.7.536-1.49.43-2.283l-.644-4.779Zm-2.074 7.359c-.927.421-2 .19-2.672-.575a8.662 8.662 0 0 0-2.85-2.136 8.662 8.662 0 0 0-3.467-.81l-.035-.001a2.28 2.28 0 0 1-2.124-1.677 2.28 2.28 0 0 1 .982-2.55l4.075-2.58a4.418 4.418 0 0 1 4.249-.273 4.419 4.419 0 0 1 2.522 3.43l.643 4.78a2.28 2.28 0 0 1-1.323 2.392ZM4.721 9.395c.828.058 1.624-.259 2.244-.892.59-.602.948-1.426 1.01-2.318.06-.892-.182-1.757-.682-2.435-.527-.711-1.272-1.135-2.099-1.192-1.662-.115-3.12 1.325-3.252 3.211-.103 1.502.668 2.84 1.825 3.38.296.137.617.223.954.246Zm-1.375-3.53c.077-1.11.863-1.965 1.752-1.903.16.01.316.052.463.12.227.106.432.277.6.505.303.409.448.942.41 1.501-.039.56-.256 1.067-.612 1.431-.326.333-.731.501-1.14.473-.889-.061-1.55-1.015-1.473-2.126ZM10.641 8.647c1.762.821 3.957-.143 4.893-2.15.936-2.008.264-4.31-1.498-5.131-1.761-.822-3.956.143-4.892 2.15-.936 2.008-.264 4.31 1.497 5.13Zm2.801-6.006c1.059.493 1.425 1.956.817 3.261-.608 1.304-1.965 1.963-3.023 1.47-1.059-.494-1.425-1.957-.817-3.26.608-1.305 1.964-1.965 3.023-1.471ZM15.744 12.114c.229.216.485.388.76.517 1.285.599 2.974.248 4.122-.967.66-.699 1.05-1.582 1.097-2.486.05-.947-.278-1.804-.923-2.413-.644-.608-1.518-.888-2.46-.785-.901.098-1.76.536-2.421 1.236-1.394 1.474-1.472 3.672-.175 4.898Zm1.197-3.932c.432-.457.982-.742 1.55-.804.526-.057 1.003.089 1.343.41.34.32.512.789.484 1.317-.03.57-.283 1.136-.715 1.593-.86.91-2.159 1.088-2.893.394-.733-.694-.63-2 .231-2.91ZM22.67 14.827c-.797-1.465-2.795-1.923-4.456-1.022-1.66.902-2.363 2.827-1.569 4.29.29.535.74.935 1.274 1.185.933.435 2.125.411 3.181-.162 1.66-.902 2.364-2.827 1.57-4.291Zm-2.24 3.055c-.98.531-2.124.326-2.548-.457-.425-.783.026-1.852 1.004-2.384.65-.353 1.372-.38 1.909-.13.271.126.496.324.639.587.424.783-.027 1.852-1.005 2.384Z"/></g><defs><clipPath><path d="M0 0h24v24H0z"/></clipPath></defs></symbol><symbol id="plus" width="24" height="24" viewBox="0 0 24 24" fill="none"><path d="M12 20V12M12 12V4M12 12H20M12 12H4" stroke-width="2" stroke-linecap="round"/></symbol><symbol id="plus-small" width="24" height="24" viewBox="0 0 24 24" fill="none"><path d="M12 7V17M7 12L17 12" stroke-width="1.5" stroke-linecap="round" stroke-linejoin="round"/></symbol><symbol id="round" width="24" height="24" viewBox="0 0 24 24" fill="none"><path d="M4 8C4 5.79086 5.79086 4 8 4H16C18.2091 4 20 5.79086 20 8V16C20 18.2091 18.2091 20 16 20H8C5.79086 20 4 18.2091 4 16V8Z" stroke-width="1.5" stroke-linejoin="round"/></symbol><symbol id="search" width="24" height="24" viewBox="0 0 24 24" fill="none"><path d="M19.4697 20.5303C19.7626 20.8232 20.2374 20.8232 20.5303 20.5303C20.8232 20.2374 20.8232 19.7626 20.5303 19.4697L19.4697 20.5303ZM17.25 10.5C17.25 14.2279 14.2279 17.25 10.5 17.25V18.75C15.0563 18.75 18.75 15.0563 18.75 10.5H17.25ZM10.5 17.25C6.77208 17.25 3.75 14.2279 3.75 10.5H2.25C2.25 15.0563 5.94365 18.75 10.5 18.75V17.25ZM3.75 10.5C3.75 6.77208 6.77208 3.75 10.5 3.75V2.25C5.94365 2.25 2.25 5.94365 2.25 10.5H3.75ZM10.5 3.75C14.2279 3.75 17.25 6.77208 17.25 10.5H18.75C18.75 5.94365 15.0563 2.25 10.5 2.25V3.75ZM20.5303 19.4697L16.3428 15.2821L15.2821 16.3428L19.4697 20.5303L20.5303 19.4697Z"/></symbol><symbol id="shape" width="22" height="16" viewBox="0 0 22 16" fill="none"><path d="M1 8C1 8 4.63636 1 11 1C17.3636 1 21 8 21 8C21 8 17.3636 15 11 15C4.63636 15 1 8 1 8Z" stroke-width="1.5" stroke-linecap="round" stroke-linejoin="round"/><path d="M11 11C12.6569 11 14 9.65685 14 8C14 6.34315 12.6569 5 11 5C9.34315 5 8 6.34315 8 8C8 9.65685 9.34315 11 11 11Z" stroke-width="1.5" stroke-linecap="round" stroke-linejoin="round"/></symbol><symbol id="shape-1" width="22" height="20" viewBox="0 0 22 20" fill="none"><path d="M8.76406 3.29519C9.46644 3.10724 10.2123 3 11 3C17.3636 3 21 10 21 10C21 10 20.171 11.5958 18.612 13.2635M3.34912 6.77822C1.8152 8.43073 1 10 1 10C1 10 4.63636 17 11 17C11.8021 17 12.5608 16.8888 13.2744 16.6944M10.5 12.9585C9.41582 12.7766 8.52883 12.0132 8.17071 11M11.5 7.04148C12.7563 7.25224 13.7478 8.24375 13.9585 9.5M2 1L20 19" stroke-width="1.5" stroke-linecap="round" stroke-linejoin="round"/></symbol><symbol id="trash-2" width="24" height="24" viewBox="0 0 24 24" fill="none"><path d="M18 6V18C18 19.1046 17.1046 20 16 20H8C6.89543 20 6 19.1046 6 18V6M15 6V5C15 3.89543 14.1046 3 13 3H11C9.89543 3 9 3.89543 9 5V6M4 6H20M10 10V16M14 10V16" stroke-width="1.5" stroke-linecap="round" stroke-linejoin="round"/></symbol><symbol id="user-1" width="28" height="28" viewBox="0 0 28 28" fill="none"><path d="M22 24V22C22 19.7909 20.2091 18 18 18H10C7.79086 18 6 19.7909 6 22V24M18 10C18 12.2091 16.2091 14 14 14C11.7909 14 10 12.2091 10 10C10 7.79086 11.7909 6 14 6C16.2091 6 18 7.79086 18 10Z" stroke-width="1.5" stroke-linecap="round" stroke-linejoin="round"/><rect x="0.75" y="0.75" width="26.5" height="26.5" rx="13.25" stroke-width="1.5"/></symbol></svg>
